# xmcd
#
# Track frame offsets:
#	150
#	10602
#	22365
#	39672
#	61660
#	75340
#	92492
#	97337
#	119355
#	136642
#	154302
#	160977
#	176387
#	185217
#	200595
#	214350
#	227962
#	241987
#	256815
#	275085
#	289202
#
# Disc length: 3924 seconds
#
# Revision: 5
# Processed by: cddbd v1.5.2PL0 Copyright (c) Steve Scherf et al.
# Submitted via: audiograbber 1.83.01
#
DISCID=2e0f5215
DTITLE=Raekwon - Immobilarity
DYEAR=1999
DGENRE=Rap
TTITLE0=Raekwon - Intro (Skit)
TTITLE1=Raekwon - Yae Yo
TTITLE2=Raekwon - Casablanca
TTITLE3=Raekwon - 100 Rounds
TTITLE4=Raekwon - Real Life
TTITLE5=Raekwon, American Cream Team - Power 
TTITLE6=Raekwon - Skit No. 1
TTITLE7=Raekwon, Big Bub - All I Got Is You Pt. II 
TTITLE8=Raekwon, Kim Stephens - Jury 
TTITLE9=Raekwon, Method Man - Fuck Them 
TTITLE10=Raekwon - Skit No. 2
TTITLE11=Raekwon - Live From New York
TTITLE12=Raekwon - My Favorite Dred
TTITLE13=Raekwon - Friday
TTITLE14=Raekwon, Masta Killa - The Table 
TTITLE15=Raekwon - Sneakers
TTITLE16=Raekwon, American Cream Team - Raw 
TTITLE17=Raekwon - Pop Shit
TTITLE18=Raekwon - Heart To Heart
TTITLE19=Raekwon - Forecast
TTITLE20=Raekwon - Outro
EXTD=www.RapMusicGuide.com
EXTT0=
EXTT1=
EXTT2=
EXTT3=
EXTT4=
EXTT5=
EXTT6=
EXTT7=
EXTT8=
EXTT9=
EXTT10=
EXTT11=
EXTT12=
EXTT13=
EXTT14=
EXTT15=
EXTT16=
EXTT17=
EXTT18=
EXTT19=
EXTT20=
PLAYORDER=
